<svg style="display:none" xmlns="http://www.w3.org/2000/svg" xmlns:xlink="http://www.w3.org/1999/xlink" version="1.1">
	<symbol id="shopping_bag" xmlns="http://www.w3.org/2000/svg" viewBox="0 -960 960 960" fill="currentColor"><path d="M240-80q-33 0-56.5-23.5T160-160v-480q0-33 23.5-56.5T240-720h80q0-66 47-113t113-47q66 0 113 47t47 113h80q33 0 56.5 23.5T800-640v480q0 33-23.5 56.5T720-80H240Zm0-80h480v-480h-80v80q0 17-11.5 28.5T600-520q-17 0-28.5-11.5T560-560v-80H400v80q0 17-11.5 28.5T360-520q-17 0-28.5-11.5T320-560v-80h-80v480Zm160-560h160q0-33-23.5-56.5T480-800q-33 0-56.5 23.5T400-720ZM240-160v-480 480Z"/></symbol>
	<symbol id="account_circle" xmlns="http://www.w3.org/2000/svg" viewBox="0 -960 960 960" fill="currentColor"><path d="M234-276q51-39 114-61.5T480-360q69 0 132 22.5T726-276q35-41 54.5-93T800-480q0-133-93.5-226.5T480-800q-133 0-226.5 93.5T160-480q0 59 19.5 111t54.5 93Zm246-164q-59 0-99.5-40.5T340-580q0-59 40.5-99.5T480-720q59 0 99.5 40.5T620-580q0 59-40.5 99.5T480-440Zm0 360q-83 0-156-31.5T197-197q-54-54-85.5-127T80-480q0-83 31.5-156T197-763q54-54 127-85.5T480-880q83 0 156 31.5T763-763q54 54 85.5 127T880-480q0 83-31.5 156T763-197q-54 54-127 85.5T480-80Zm0-80q53 0 100-15.5t86-44.5q-39-29-86-44.5T480-280q-53 0-100 15.5T294-220q39 29 86 44.5T480-160Zm0-360q26 0 43-17t17-43q0-26-17-43t-43-17q-26 0-43 17t-17 43q0 26 17 43t43 17Zm0-60Zm0 360Z"/></symbol>
	<symbol id="close" xmlns="http://www.w3.org/2000/svg" viewBox="0 -960 960 960" fill="currentColor"><path d="m256-200-56-56 224-224-224-224 56-56 224 224 224-224 56 56-224 224 224 224-56 56-224-224-224 224Z"/></symbol>
	<symbol id="chevron-right" xmlns="http://www.w3.org/2000/svg" width="32" height="32" viewBox="0 0 32 32" fill="none"><path d="M12 24L20 16L12 8" stroke="currentColor" stroke-linecap="round" stroke-linejoin="round"/></symbol>
	<symbol id="chevron-left" xmlns="http://www.w3.org/2000/svg" width="32" height="32" viewBox="0 0 32 32" fill="none"><path d="M20 24L12 16L20 8" stroke="currentColor" stroke-linecap="round" stroke-linejoin="round"/></symbol>
	<symbol id="favorite" xmlns="http://www.w3.org/2000/svg" viewBox="0 -960 960 960" fill="currentColor"><path d="m480-120-58-52q-101-91-167-157T150-447.5Q111-500 95.5-544T80-634q0-94 63-157t157-63q52 0 99 22t81 62q34-40 81-62t99-22q94 0 157 63t63 157q0 46-15.5 90T810-447.5Q771-395 705-329T538-172l-58 52Zm0-108q96-86 158-147.5t98-107q36-45.5 50-81t14-70.5q0-60-40-100t-100-40q-47 0-87 26.5T518-680h-76q-15-41-55-67.5T300-774q-60 0-100 40t-40 100q0 35 14 70.5t50 81q36 45.5 98 107T480-228Zm0-273Z"/></symbol>
	<symbol id="home_pin" xmlns="http://www.w3.org/2000/svg" viewBox="0 -960 960 960" fill="currentColor"><path d="M360-440h80v-110h80v110h80v-190l-120-80-120 80v190Zm120 254q122-112 181-203.5T720-552q0-109-69.5-178.5T480-800q-101 0-170.5 69.5T240-552q0 71 59 162.5T480-186Zm0 106Q319-217 239.5-334.5T160-552q0-150 96.5-239T480-880q127 0 223.5 89T800-552q0 100-79.5 217.5T480-80Zm0-480Z"/></symbol>
	<symbol id="call" xmlns="http://www.w3.org/2000/svg" viewBox="0 -960 960 960" fill="currentColor"><path d="M798-120q-125 0-247-54.5T329-329Q229-429 174.5-551T120-798q0-18 12-30t30-12h162q14 0 25 9.5t13 22.5l26 140q2 16-1 27t-11 19l-97 98q20 37 47.5 71.5T387-386q31 31 65 57.5t72 48.5l94-94q9-9 23.5-13.5T670-390l138 28q14 4 23 14.5t9 23.5v162q0 18-12 30t-30 12ZM241-600l66-66-17-94h-89q5 41 14 81t26 79Zm358 358q39 17 79.5 27t81.5 13v-88l-94-19-67 67ZM241-600Zm358 358Z"/></symbol>
	<symbol id="local_shipping" xmlns="http://www.w3.org/2000/svg" viewBox="0 -960 960 960" fill="currentColor"><path d="M240-160q-50 0-85-35t-35-85H40v-440q0-33 23.5-56.5T120-800h560v160h120l120 160v200h-80q0 50-35 85t-85 35q-50 0-85-35t-35-85H360q0 50-35 85t-85 35Zm0-80q17 0 28.5-11.5T280-280q0-17-11.5-28.5T240-320q-17 0-28.5 11.5T200-280q0 17 11.5 28.5T240-240ZM120-360h32q17-18 39-29t49-11q27 0 49 11t39 29h272v-360H120v360Zm600 120q17 0 28.5-11.5T760-280q0-17-11.5-28.5T720-320q-17 0-28.5 11.5T680-280q0 17 11.5 28.5T720-240Zm-40-200h170l-90-120h-80v120ZM360-540Z"/></symbol>
	<symbol id="pan_zoom" xmlns="http://www.w3.org/2000/svg" viewBox="0 -960 960 960" fill="currentColor"><path d="M120-120v-240h80v104l124-124 56 56-124 124h104v80H120Zm516-460-56-56 124-124H600v-80h240v240h-80v-104L636-580Z"/></symbol>
	<symbol id="share" xmlns="http://www.w3.org/2000/svg" viewBox="0 -960 960 960" fill="currentColor"><path d="M720-80q-50 0-85-35t-35-85q0-7 1-14.5t3-13.5L322-392q-17 15-38 23.5t-44 8.5q-50 0-85-35t-35-85q0-50 35-85t85-35q23 0 44 8.5t38 23.5l282-164q-2-6-3-13.5t-1-14.5q0-50 35-85t85-35q50 0 85 35t35 85q0 50-35 85t-85 35q-23 0-44-8.5T638-672L356-508q2 6 3 13.5t1 14.5q0 7-1 14.5t-3 13.5l282 164q17-15 38-23.5t44-8.5q50 0 85 35t35 85q0 50-35 85t-85 35Zm0-640q17 0 28.5-11.5T760-760q0-17-11.5-28.5T720-800q-17 0-28.5 11.5T680-760q0 17 11.5 28.5T720-720ZM240-440q17 0 28.5-11.5T280-480q0-17-11.5-28.5T240-520q-17 0-28.5 11.5T200-480q0 17 11.5 28.5T240-440Zm480 280q17 0 28.5-11.5T760-200q0-17-11.5-28.5T720-240q-17 0-28.5 11.5T680-200q0 17 11.5 28.5T720-160Zm0-600ZM240-480Zm480 280Z"/></symbol>
	<symbol id="sell" xmlns="http://www.w3.org/2000/svg" viewBox="0 -960 960 960" fill="currentColor"><path d="M856-390 570-104q-12 12-27 18t-30 6q-15 0-30-6t-27-18L103-457q-11-11-17-25.5T80-513v-287q0-33 23.5-56.5T160-880h287q16 0 31 6.5t26 17.5l352 353q12 12 17.5 27t5.5 30q0 15-5.5 29.5T856-390ZM513-160l286-286-353-354H160v286l353 354ZM260-640q25 0 42.5-17.5T320-700q0-25-17.5-42.5T260-760q-25 0-42.5 17.5T200-700q0 25 17.5 42.5T260-640Zm220 160Z"/></symbol>
	<symbol id="check-circle" xmlns="http://www.w3.org/2000/svg" viewBox="0 -960 960 960" fill="currentColor"><path d="m424-296 282-282-56-56-226 226-114-114-56 56 170 170Zm56 216q-83 0-156-31.5T197-197q-54-54-85.5-127T80-480q0-83 31.5-156T197-763q54-54 127-85.5T480-880q83 0 156 31.5T763-763q54 54 85.5 127T880-480q0 83-31.5 156T763-197q-54 54-127 85.5T480-80Zm0-80q134 0 227-93t93-227q0-134-93-227t-227-93q-134 0-227 93t-93 227q0 134 93 227t227 93Zm0-320Z"/></symbol>
	<symbol id="error" xmlns="http://www.w3.org/2000/svg" viewBox="0 -960 960 960" fill="currentColor"><path d="M480-280q17 0 28.5-11.5T520-320q0-17-11.5-28.5T480-360q-17 0-28.5 11.5T440-320q0 17 11.5 28.5T480-280Zm-40-160h80v-240h-80v240Zm40 360q-83 0-156-31.5T197-197q-54-54-85.5-127T80-480q0-83 31.5-156T197-763q54-54 127-85.5T480-880q83 0 156 31.5T763-763q54 54 85.5 127T880-480q0 83-31.5 156T763-197q-54 54-127 85.5T480-80Zm0-80q134 0 227-93t93-227q0-134-93-227t-227-93q-134 0-227 93t-93 227q0 134 93 227t227 93Zm0-320Z"/></symbol>
	<symbol id="trash" xmlns="http://www.w3.org/2000/svg" viewBox="0 -960 960 960" fill="currentColor"><path d="M280-120q-33 0-56.5-23.5T200-200v-520h-40v-80h200v-40h240v40h200v80h-40v520q0 33-23.5 56.5T680-120H280Zm400-600H280v520h400v-520ZM360-280h80v-360h-80v360Zm160 0h80v-360h-80v360ZM280-720v520-520Z"/></symbol>
	<symbol id="corebiz-logo" xmlns="http://www.w3.org/2000/svg" width="96" height="24" viewBox="0 0 96 24" fill="none"><path d="M73.8667 21.9492H70.5703V7.34973H73.8667V21.9492Z" fill="white"/><path d="M8.15494 10.3432C7.64529 10.3363 7.13983 10.4355 6.67112 10.6343C6.2024 10.8331 5.78082 11.1271 5.43351 11.4975C4.69246 12.2585 4.32194 13.3113 4.32194 14.6432C4.32194 15.975 4.69246 17.0532 5.44629 17.8269C5.79894 18.2017 6.22663 18.4991 6.7019 18.7C7.17717 18.901 7.68952 19.0011 8.20605 18.9938C9.17708 18.9938 9.95646 18.7275 10.5442 18.2074C11.0906 17.7344 11.4932 17.1194 11.7069 16.4316L14.6199 17.4844C14.2366 18.7148 13.4956 19.7803 12.3968 20.6682C11.298 21.5561 9.90535 22 8.20605 22C6.16178 22 4.44971 21.3024 3.06982 19.8944C1.68994 18.4865 1 16.7361 1 14.6432C1 12.5249 1.67716 10.7745 3.04427 9.39191C4.41138 8.00934 6.0979 7.31171 8.12939 7.31171C9.86702 7.31171 11.2852 7.75565 12.384 8.64355C13.4258 9.45634 14.1744 10.5822 14.5177 11.8526L11.5408 12.9308C11.362 12.2285 10.98 11.5935 10.442 11.1043C9.88107 10.5969 9.12725 10.3432 8.15494 10.3432Z" fill="white"/><path d="M20.0896 17.7888C20.4569 18.1578 20.8942 18.451 21.3761 18.6515C21.8581 18.852 22.3752 18.9558 22.8978 18.957C23.4204 18.9582 23.938 18.8567 24.4209 18.6584C24.9038 18.4601 25.3423 18.1689 25.7113 17.8015C26.4779 17.0278 26.8612 15.9623 26.8612 14.5797C26.8612 13.2225 26.4779 12.1698 25.7113 11.4087C24.9613 10.6771 23.9519 10.2672 22.9005 10.2672C21.849 10.2672 20.8396 10.6771 20.0896 11.4087C19.323 12.1698 18.9397 13.2225 18.9397 14.5797C18.9397 15.937 19.323 17.0151 20.0896 17.7888ZM22.9005 7.31171C25.0342 7.31171 26.7974 7.99665 28.1772 9.36654C29.5571 10.7364 30.2598 12.4742 30.2598 14.5924C30.2598 16.7107 29.5699 18.4484 28.1772 19.831C26.7846 21.2136 25.0342 21.8985 22.9005 21.8985C20.7923 21.8985 19.0419 21.2136 17.6492 19.831C16.2566 18.4484 15.5667 16.698 15.5667 14.5924C15.5667 12.4869 16.2566 10.7491 17.6492 9.36654C19.0419 7.98397 20.7795 7.31171 22.9005 7.31171Z" fill="white"/><path d="M38.8586 7.40045V10.7364C38.4991 10.6816 38.1362 10.652 37.7725 10.6476C35.2683 10.6476 34.029 11.8653 34.029 14.567V21.8985H30.707V7.34972H33.9395V9.68361C34.2573 8.949 34.8095 8.33844 35.5111 7.94588C36.2593 7.51501 37.1121 7.29568 37.977 7.31167C38.2732 7.30915 38.5689 7.33892 38.8586 7.40045Z" fill="white"/><path d="M43.3944 13.0957H50.7921C50.7803 12.6852 50.6848 12.2813 50.5113 11.9085C50.3378 11.5357 50.0899 11.2017 49.7827 10.9267C49.1567 10.3432 48.2495 10.0515 47.0741 10.0515C46.0008 10.0515 45.132 10.3559 44.4804 10.9647C43.8288 11.5736 43.4582 12.289 43.3944 13.0957ZM51.1881 16.6726L54.2162 17.5478C53.7818 18.8036 52.9769 19.8437 51.7887 20.6682C50.6004 21.4926 49.1439 21.8985 47.4062 21.8985C45.2598 21.8985 43.4455 21.2263 41.9506 19.8944C40.4557 18.5626 39.7019 16.7741 39.7019 14.529C39.7019 12.4234 40.4302 10.6857 41.8867 9.34117C43.2675 8.01888 45.1174 7.28976 47.0357 7.3117C49.3483 7.3117 51.1498 7.95859 52.453 9.23969C53.7563 10.5208 54.4079 12.2585 54.4079 14.4402C54.4079 15.0237 54.3823 15.3662 54.3184 15.4803H43.3049C43.3187 15.9711 43.4375 16.4534 43.6534 16.8951C43.8693 17.3369 44.1773 17.728 44.557 18.0425C45.3528 18.7188 46.3718 19.0801 47.419 19.0573C49.3483 19.0699 50.6132 18.2708 51.1881 16.6726Z" fill="white"/><path d="M58.4836 21.9492H55.1106V1H58.5092V9.43499C58.8669 8.85152 59.4547 8.35683 60.2724 7.96362C61.1505 7.55228 62.1125 7.34824 63.0832 7.36747C65.1914 7.36747 66.8396 8.03973 68.0278 9.39694C69.2161 10.7541 69.8038 12.4792 69.8038 14.5848C69.8038 16.7284 69.1777 18.4788 67.9384 19.8614C66.699 21.244 65.0381 21.9162 62.9683 21.9162C60.8984 21.9162 59.4036 21.1932 58.4836 19.7346V21.9492ZM65.217 17.8015C65.9452 17.0151 66.303 15.9496 66.303 14.6051C66.303 13.2605 65.9452 12.2078 65.2297 11.434C64.5142 10.6603 63.5688 10.2798 62.3933 10.2798C61.2562 10.2798 60.3235 10.6603 59.5824 11.434C58.8414 12.2078 58.4836 13.2605 58.4836 14.6051C58.4836 15.9496 58.8542 16.9897 59.5824 17.7888C60.3107 18.5879 61.2562 18.9811 62.3933 18.9811C63.556 18.9811 64.4887 18.5879 65.217 17.8015Z" fill="white"/><path d="M89.4542 21.9366H74.9143V19.0699L84.1007 10.2417H74.761V7.34973H89.4286V10.1326L80.1272 19.037H89.4542V21.9416V21.9366Z" fill="white"/><path d="M90.8469 21.239C90.6193 21.0182 90.4395 20.7535 90.3186 20.4612C90.1978 20.1689 90.1384 19.8552 90.1442 19.5393C90.1383 19.2215 90.1976 18.9058 90.3184 18.6114C90.4392 18.3171 90.619 18.0502 90.8469 17.8269C91.0661 17.5959 91.3318 17.4132 91.6268 17.2909C91.9218 17.1685 92.2394 17.1091 92.559 17.1166C93.206 17.1173 93.8263 17.3727 94.2838 17.8269C94.7413 18.2811 94.9987 18.897 94.9993 19.5393C95.0069 19.8566 94.9471 20.1719 94.8238 20.4647C94.7005 20.7576 94.5166 21.0214 94.2838 21.239C94.0582 21.4643 93.7893 21.6422 93.4929 21.762C93.1966 21.8819 92.8789 21.9412 92.559 21.9366C92.2408 21.9423 91.9248 21.8834 91.6303 21.7634C91.3359 21.6434 91.0693 21.465 90.8469 21.239Z" fill="#BFBFBF"/></symbol>
	<symbol id="menu" xmlns="http://www.w3.org/2000/svg" width="24" height="24" viewBox="0 0 24 24" fill="none"><line y1="3.5" x2="24" y2="3.5" stroke="currentColor"/><line y1="11.5" x2="24" y2="11.5" stroke="currentColor"/><line y1="19.5" x2="24" y2="19.5" stroke="currentColor"/></symbol>
	<symbol id="icon-close" xmlns="http://www.w3.org/2000/svg" width="24" height="24" viewBox="0 0 24 24" fill="none"><path d="M18 6L6 18" stroke="currentColor" stroke-linecap="round" stroke-linejoin="round"/><path d="M6 6L18 18" stroke="currentColor" stroke-linecap="round" stroke-linejoin="round"/></symbol>
	<symbol id="search" xmlns="http://www.w3.org/2000/svg" width="24" height="24" viewBox="0 0 24 24" fill="none"><path d="M11 19C15.4183 19 19 15.4183 19 11C19 6.58172 15.4183 3 11 3C6.58172 3 3 6.58172 3 11C3 15.4183 6.58172 19 11 19Z" stroke="currentColor" stroke-linecap="round" stroke-linejoin="round"/><path d="M20.9999 20.9999L16.6499 16.6499" stroke="currentColor" stroke-linecap="round" stroke-linejoin="round"/></symbol>
	<symbol id="seta-direita" xmlns="http://www.w3.org/2000/svg" viewBox="0 0 24 24" fill="none"><path d="M9 18L15 12L9 6" stroke="currentColor" stroke-linecap="round" stroke-linejoin="round"/></symbol>
	<symbol id="clear-search" xmlns="http://www.w3.org/2000/svg" width="16" height="16" viewBox="0 0 16 16" fill="none"><circle cx="8" cy="8" r="8" fill="#CCCCCC"/><path d="M11.4284 4.57144L4.57129 11.4286" stroke="#F5F5F5" stroke-linecap="round" stroke-linejoin="round"/><path d="M4.57129 4.57144L11.4284 11.4286" stroke="#F5F5F5" stroke-linecap="round" stroke-linejoin="round"/></symbol>
	<symbol id="icon-pause" width="40" height="40" viewBox="0 0 40 40" fill="none" xmlns="http://www.w3.org/2000/svg"><path d="M23 30V10H29V30H23ZM11 30V10H17V30H11Z" fill="currentColor"/></symbol>
	<symbol id="icon-unmute" width="40" height="40" viewBox="0 0 40 40" fill="none" xmlns="http://www.w3.org/2000/svg"><path d="M19.1022 8C18.9372 8 18.7694 8.04635 18.6156 8.15353L11.0342 14.8652H6.44749C6.20137 14.8652 6 15.0738 6 15.3287V23.6713C6 23.9262 6.20137 24.1348 6.44749 24.1348H11.0342L18.6156 30.8465C18.7694 30.9508 18.94 31 19.1022 31C19.5693 31 20 30.6147 20 30.0702V8.92985C20 8.38526 19.5693 8 19.1022 8Z" fill="currentColor"/><path d="M25 14C29 16.3269 29 22.1303 25 25" stroke="currentColor" stroke-width="2" stroke-linecap="round"/><path d="M29 10C35.5 13.5 35 25 29 28" stroke="currentColor" stroke-width="2" stroke-linecap="round"/></symbol>
	<symbol id="icon-mute" width="40" height="40" viewBox="0 0 40 40" fill="none" xmlns="http://www.w3.org/2000/svg"><path d="M24 15L34 25" stroke="currentColor" stroke-width="2" stroke-linecap="round"/><path d="M34 15L24 25" stroke="currentColor" stroke-width="2" stroke-linecap="round"/><path d="M19.1022 8C18.9372 8 18.7694 8.04635 18.6156 8.15353L11.0342 14.8652H6.44749C6.20137 14.8652 6 15.0738 6 15.3287V23.6713C6 23.9262 6.20137 24.1348 6.44749 24.1348H11.0342L18.6156 30.8465C18.7694 30.9508 18.94 31 19.1022 31C19.5693 31 20 30.6147 20 30.0702V8.92985C20 8.38526 19.5693 8 19.1022 8Z" fill="currentColor"/></symbol>
	<symbol id="icon-play" width="40" height="40" viewBox="0 0 40 40" fill="none" xmlns="http://www.w3.org/2000/svg"><path xmlns="http://www.w3.org/2000/svg" d="M11 10L28 20L11 30V10Z" fill="currentColor"/></symbol>
	<symbol id="icon-reset" xmlns="http://www.w3.org/2000/svg" xmlns:xlink="http://www.w3.org/1999/xlink" viewBox="0,0,256,256" width="40px" height="40px" fill-rule="nonzero"><g fill="#ffffff" fill-rule="nonzero" stroke="none" stroke-width="1" stroke-linecap="butt" stroke-linejoin="miter" stroke-miterlimit="10" stroke-dasharray="" stroke-dashoffset="0" font-family="none" font-weight="none" font-size="none" text-anchor="none" style="mix-blend-mode: normal"><g transform="scale(5.12,5.12)"><path d="M25,2c-0.72127,-0.0102 -1.39216,0.36875 -1.75578,0.99175c-0.36361,0.623 -0.36361,1.39351 0,2.01651c0.36361,0.623 1.0345,1.00195 1.75578,0.99175c10.51712,0 19,8.48288 19,19c0,10.51712 -8.48288,19 -19,19c-10.51712,0 -19,-8.48288 -19,-19c0,-5.4758 2.30802,-10.39189 6,-13.85547v3.85547c-0.0102,0.72127 0.36875,1.39216 0.99175,1.75578c0.623,0.36361 1.39351,0.36361 2.01651,0c0.623,-0.36361 1.00195,-1.0345 0.99175,-1.75578v-11h-11c-0.72127,-0.0102 -1.39216,0.36875 -1.75578,0.99175c-0.36361,0.623 -0.36361,1.39351 0,2.01651c0.36361,0.623 1.0345,1.00195 1.75578,0.99175h4.52539c-4.61869,4.20948 -7.52539,10.27232 -7.52539,17c0,12.67888 10.32112,23 23,23c12.67888,0 23,-10.32112 23,-23c0,-12.67888 -10.32112,-23 -23,-23z"></path></g></g></symbol>
	<symbol id="icon-document" xmlns="http://www.w3.org/2000/svg" width="62" height="62" viewBox="0 0 62 62" fill="none"><path d="M51.6673 36.9619L51.6673 30.0067C51.6673 27.6351 50.6875 25.3606 48.9434 23.6836C47.1993 22.0066 44.8338 21.0644 42.3673 21.0644L38.234 21.0644C37.4118 21.0644 36.6233 20.7504 36.042 20.1914C35.4606 19.6324 35.134 18.8742 35.134 18.0837L35.134 14.1093C35.134 11.7377 34.1542 9.46314 32.4101 7.78613C30.666 6.10913 28.3005 5.16699 25.834 5.16699L20.6673 5.16699M26.8673 5.16699L13.434 5.16699C11.7228 5.16699 10.334 6.50238 10.334 8.14776L10.334 53.8529C10.334 55.4983 11.7228 56.8337 13.434 56.8337L48.5673 56.8337C50.2785 56.8337 51.6673 55.4983 51.6673 53.8529L51.6673 29.0131C51.6673 22.6888 49.0545 16.6234 44.4036 12.1514C39.7527 7.67935 33.4447 5.16699 26.8673 5.16699Z" stroke="#4A4A4A" stroke-linecap="round" stroke-linejoin="round"/></symbol>
	<symbol id="icon-largura" width="24" height="24" viewBox="0 0 24 24" fill="none" xmlns="http://www.w3.org/2000/svg"><path d="M3 12H20" stroke="#581A2C" stroke-linecap="round" stroke-linejoin="round"/><path d="M16 8L20 12L16 16" stroke="#581A2C" stroke-linecap="round" stroke-linejoin="round"/><path d="M7 16L3 12L7 8" stroke="#581A2C" stroke-linecap="round" stroke-linejoin="round"/></symbol>
	<symbol id="icon-profundidade" width="24" height="24" viewBox="0 0 24 24" fill="none" xmlns="http://www.w3.org/2000/svg"><path d="M6.17188 6.24219L18.1927 18.263" stroke="#581A2C" stroke-linecap="round" stroke-linejoin="round"/><path d="M18.1914 12.6066V18.2634H12.5346" stroke="#581A2C" stroke-linecap="round" stroke-linejoin="round"/><path d="M6.17188 11.8994L6.17187 6.24256L11.8287 6.24256" stroke="#581A2C" stroke-linecap="round" stroke-linejoin="round"/></symbol>
	<symbol id="icon-peso" width="24" height="24" viewBox="0 0 24 24" fill="none" xmlns="http://www.w3.org/2000/svg"><path d="M4 20H20" stroke="#581A2C" stroke-linecap="round" stroke-linejoin="round"/><path d="M6.71425 7.8165C6.80261 7.34316 7.21575 7 7.69727 7H16.3027C16.7842 7 17.1974 7.34316 17.2857 7.8165L18.7791 15.8165C18.8939 16.4317 18.4219 17 17.7961 17H6.20394C5.57813 17 5.10609 16.4317 5.22092 15.8165L6.71425 7.8165Z" stroke="#581A2C"/><path d="M14.5 6.5C14.5 5.11929 13.3807 4 12 4C10.6193 4 9.5 5.11929 9.5 6.5" stroke="#581A2C" stroke-linecap="round"/></symbol>
	<symbol id="icon-altura" width="24" height="24" viewBox="0 0 24 24" fill="none" xmlns="http://www.w3.org/2000/svg"><path d="M12 3.5L12 20.5" stroke="#581A2C" stroke-linecap="round" stroke-linejoin="round"/><path d="M16 16.5L12 20.5L8 16.5" stroke="#581A2C" stroke-linecap="round" stroke-linejoin="round"/><path d="M8 7.5L12 3.5L16 7.5" stroke="#581A2C" stroke-linecap="round" stroke-linejoin="round"/></symbol>
	<symbol id="icon-briefcase" xmlns="http://www.w3.org/2000/svg" width="24" height="24" viewBox="0 0 24 24" fill="none"><path d="M20 7H4C2.89543 7 2 7.89543 2 9V19C2 20.1046 2.89543 21 4 21H20C21.1046 21 22 20.1046 22 19V9C22 7.89543 21.1046 7 20 7Z" stroke="currentColor" stroke-linecap="round" stroke-linejoin="round"/><path d="M16 21V5C16 4.46957 15.7893 3.96086 15.4142 3.58579C15.0391 3.21071 14.5304 3 14 3H10C9.46957 3 8.96086 3.21071 8.58579 3.58579C8.21071 3.96086 8 4.46957 8 5V21" stroke="currentColor" stroke-linecap="round" stroke-linejoin="round"/></symbol>
	<symbol id="icon-maximize" xmlns="http://www.w3.org/2000/svg" viewBox="0 0 26 26" fill="none"><path d="M16.25 3.25H22.75V9.75" stroke="#111111" stroke-linecap="round" stroke-linejoin="round"/><path d="M9.75 22.75H3.25V16.25" stroke="black" stroke-linecap="round" stroke-linejoin="round"/><path d="M22.7501 3.25L15.1667 10.8333" stroke="black" stroke-linecap="round" stroke-linejoin="round"/><path d="M3.25 22.75L10.8333 15.1667" stroke="black" stroke-linecap="round" stroke-linejoin="round"/></symbol>
	<symbol id="icon-plus" xmlns="http://www.w3.org/2000/svg" viewBox="0 0 32 32" fill="none"><path d="M15.9999 6.66675L16 25.3334" stroke="#111111" stroke-linecap="round" stroke-linejoin="round"/><path d="M25.3333 16L6.66664 16" stroke="black" stroke-linecap="round" stroke-linejoin="round"/></symbol>
	<symbol id="icon-less" xmlns="http://www.w3.org/2000/svg" viewBox="0 0 32 32" fill="none"><path d="M6.66669 16L25.3334 16" stroke="#111111" stroke-linecap="round" stroke-linejoin="round"/></symbol>
	<symbol id="icon-ruler" xmlns="http://www.w3.org/2000/svg" viewBox="0 0 24 24" fill="none"><path d="M15.6 13.8L15.6 16.5M10.2 16.5L10.2 13.8L7.5 13.8M10.2 8.4L7.5 8.4M3 3.54L3 20.46C3 20.6032 3.05689 20.7406 3.15816 20.8418C3.25943 20.9431 3.39678 21 3.54 21L20.46 21C20.6032 21 20.7406 20.9431 20.8418 20.8418C20.9431 20.7406 21 20.6032 21 20.46L21 14.34C21 14.1968 20.9431 14.0594 20.8418 13.9582C20.7406 13.8569 20.6032 13.8 20.46 13.8L10.74 13.8C10.5968 13.8 10.4594 13.7431 10.3582 13.6418C10.2569 13.5406 10.2 13.4032 10.2 13.26L10.2 3.54C10.2 3.46909 10.186 3.39887 10.1589 3.33335C10.1318 3.26784 10.092 3.20831 10.0418 3.15816C9.99169 3.10802 9.93216 3.06824 9.86665 3.04111C9.80113 3.01397 9.73091 3 9.66 3L3.54 3C3.46908 3 3.39887 3.01397 3.33335 3.04111C3.26783 3.06824 3.2083 3.10802 3.15816 3.15816C3.10802 3.20831 3.06824 3.26784 3.0411 3.33335C3.01397 3.39887 3 3.46909 3 3.54Z" stroke="currentColor" stroke-linecap="round" stroke-linejoin="round"/></symbol>
	<symbol id="icon-plus-mini" xmlns="http://www.w3.org/2000/svg" viewBox="0 0 16 16" fill="none"><path d="M8 3.33325L7.99992 12.6666" stroke="currentColor" stroke-linecap="round" stroke-linejoin="round"/><path d="M3.33398 8L12.6673 8" stroke="currentColor" stroke-linecap="round" stroke-linejoin="round"/></symbol>
	<symbol id="institutional-slide-close" xmlns="http://www.w3.org/2000/svg" viewbox="0 0 24 24" fill="none"><svg width="24" height="24" viewBox="0 0 24 24" fill="none" xmlns="http://www.w3.org/2000/svg"><path d="M18 6L6 18" stroke="currentColor" stroke-linecap="round" stroke-linejoin="round"/><path d="M6 6L18 18" stroke="currentColor" stroke-linecap="round" stroke-linejoin="round"/></svg></symbol>
	<symbol id="icon-user" xmlns="http://www.w3.org/2000/svg" width="24" height="24" viewBox="0 0 24 24" fill="none"><path d="M20 21V19C20 17.9391 19.5786 16.9217 18.8284 16.1716C18.0783 15.4214 17.0609 15 16 15H8C6.93913 15 5.92172 15.4214 5.17157 16.1716C4.42143 16.9217 4 17.9391 4 19V21" stroke="currentColor" stroke-linecap="round" stroke-linejoin="round"/><path d="M12 11C14.2091 11 16 9.20914 16 7C16 4.79086 14.2091 3 12 3C9.79086 3 8 4.79086 8 7C8 9.20914 9.79086 11 12 11Z" stroke="currentColor" stroke-linecap="round" stroke-linejoin="round"/></symbol>
	<symbol id="icon-increase" xmlns="http://www.w3.org/2000/svg" viewBox="0 0 20 20" fill="none"><path d="M10 4.1665L9.99992 15.8332" stroke="currentColor" stroke-linecap="round" stroke-linejoin="round"/><path d="M4.16699 10L15.8337 10" stroke="currentColor" stroke-linecap="round" stroke-linejoin="round"/></symbol>
	<symbol id="icon-decrease" xmlns="http://www.w3.org/2000/svg" viewBox="0 0 20 20" fill="none"><path d="M4.16699 10L15.8337 10" stroke="currentColor" stroke-linecap="round" stroke-linejoin="round"/></symbol>
	<symbol id="icon-heart" xmlns="http://www.w3.org/2000/svg" viewBox="0 0 24 24"><path d="M20.4578 4.59133C19.9691 4.08683 19.3889 3.68663 18.7503 3.41358C18.1117 3.14054 17.4272 3 16.7359 3C16.0446 3 15.3601 3.14054 14.7215 3.41358C14.0829 3.68663 13.5026 4.08683 13.0139 4.59133L11.9997 5.63785L10.9855 4.59133C9.99842 3.57276 8.6596 3.00053 7.26361 3.00053C5.86761 3.00053 4.52879 3.57276 3.54168 4.59133C2.55456 5.6099 2 6.99139 2 8.43187C2 9.87235 2.55456 11.2538 3.54168 12.2724L4.55588 13.3189L11.9997 21L19.4436 13.3189L20.4578 12.2724C20.9467 11.7681 21.3346 11.1694 21.5992 10.5105C21.8638 9.85148 22 9.14517 22 8.43187C22 7.71857 21.8638 7.01225 21.5992 6.35328C21.3346 5.69431 20.9467 5.09559 20.4578 4.59133Z" stroke="currentColor" stroke-linecap="round" stroke-linejoin="round"/></symbol>
	<symbol id="arrow-right" fill="none" height="24" viewBox="0 0 24 24" width="24" xmlns="http://www.w3.org/2000/svg"><g id="icon-arrow-right"><path d="M5 12H19" id="Vector" stroke="currentColor" stroke-linecap="round" stroke-linejoin="round" /><path d="M12 5L19 12L12 19" id="Vector_2" stroke="currentColor" stroke-linecap="round" stroke-linejoin="round" /></g></symbol>
	<symbol id="icon-trash" xmlns="http://www.w3.org/2000/svg" viewBox="0 0 24 24" fill="none"><path d="M3 6H5H21" stroke="currentColor" stroke-linecap="round" stroke-linejoin="round"/><path d="M8 6V4C8 3.46957 8.21071 2.96086 8.58579 2.58579C8.96086 2.21071 9.46957 2 10 2H14C14.5304 2 15.0391 2.21071 15.4142 2.58579C15.7893 2.96086 16 3.46957 16 4V6M19 6V20C19 20.5304 18.7893 21.0391 18.4142 21.4142C18.0391 21.7893 17.5304 22 17 22H7C6.46957 22 5.96086 21.7893 5.58579 21.4142C5.21071 21.0391 5 20.5304 5 20V6H19Z" stroke="currentColor" stroke-linecap="round" stroke-linejoin="round"/><path d="M10 11V17" stroke="currentColor" stroke-linecap="round" stroke-linejoin="round"/><path d="M14 11V17" stroke="currentColor" stroke-linecap="round" stroke-linejoin="round"/></symbol>
	<symbol id="icon-filter" xmlns="http://www.w3.org/2000/svg" width="24" height="24" viewBox="0 0 24 24" fill="none"><path d="M7 13L7 3" stroke="currentColor" stroke-linecap="round" stroke-linejoin="round"/><path d="M7 21L7 19" stroke="currentColor" stroke-linecap="round" stroke-linejoin="round"/><path d="M10 16C10 14.3431 8.65685 13 7 13C5.34315 13 4 14.3431 4 16C4 17.6569 5.34315 19 7 19C8.65685 19 10 17.6569 10 16Z" stroke="currentColor" stroke-linecap="round" stroke-linejoin="round"/><path d="M20 8C20 6.34315 18.6569 5 17 5C15.3431 5 14 6.34315 14 8C14 9.65685 15.3431 11 17 11C18.6569 11 20 9.65685 20 8Z" stroke="currentColor" stroke-linecap="round" stroke-linejoin="round"/><path d="M17 5L17 3" stroke="currentColor" stroke-linecap="round" stroke-linejoin="round"/><path d="M17 21L17 11" stroke="currentColor" stroke-linecap="round" stroke-linejoin="round"/></symbol>
</svg>